<?xml version="1.0" encoding="UTF-8" standalone="no"?>
<!-- Created with Inkscape (http://www.inkscape.org/) -->

<svg
   xmlns:dc="http://purl.org/dc/elements/1.1/"
   xmlns:cc="http://creativecommons.org/ns#"
   xmlns:rdf="http://www.w3.org/1999/02/22-rdf-syntax-ns#"
   xmlns:svg="http://www.w3.org/2000/svg"
   xmlns="http://www.w3.org/2000/svg"
   xmlns:sodipodi="http://sodipodi.sourceforge.net/DTD/sodipodi-0.dtd"
   xmlns:inkscape="http://www.inkscape.org/namespaces/inkscape"
   width="210mm"
   height="210mm"
   viewBox="0 0 210 210"
   version="1.1"
   id="svg8"
   inkscape:version="0.92.2 5c3e80d, 2017-08-06"
   sodipodi:docname="ykman-logo.svg">
  <defs
     id="defs2" />
  <sodipodi:namedview
     id="base"
     pagecolor="#ffffff"
     bordercolor="#666666"
     borderopacity="1.0"
     inkscape:pageopacity="0.0"
     inkscape:pageshadow="2"
     inkscape:zoom="0.49497475"
     inkscape:cx="11.381361"
     inkscape:cy="601.91014"
     inkscape:document-units="mm"
     inkscape:current-layer="svg8"
     showgrid="false"
     inkscape:window-width="1600"
     inkscape:window-height="900"
     inkscape:window-x="0"
     inkscape:window-y="0"
     inkscape:window-maximized="0"
     inkscape:snap-bbox="true"
     inkscape:snap-bbox-midpoints="true"
     units="mm"
     inkscape:pagecheckerboard="true" />
  <metadata
     id="metadata5">
    <rdf:RDF>
      <cc:Work
         rdf:about="">
        <dc:format>image/svg+xml</dc:format>
        <dc:type
           rdf:resource="http://purl.org/dc/dcmitype/StillImage" />
        <dc:title></dc:title>
      </cc:Work>
    </rdf:RDF>
  </metadata>
  <g
     inkscape:label="Layer 1"
     inkscape:groupmode="layer"
     id="layer1"
     transform="translate(0,-87)" />
  <g
     id="g5715"
     transform="matrix(3.0467595,0,0,3.0467595,-185.5396,516.01579)">
    <path
       inkscape:export-ydpi="90"
       inkscape:export-xdpi="90"
       inkscape:export-filename="/tmp/path862.png"
       inkscape:connector-curvature="0"
       id="path856"
       d="m 78.583221,-163.9614 a 33.554267,34.248605 60 0 0 -5.993562,4.4259 l 1.332575,12.2557 -11.667292,5.14438 a 33.554267,34.248605 60 0 0 -0.301311,14.33268 l 11.968476,5.27738 -1.411981,12.98544 a 33.554267,34.248605 60 0 0 12.547989,6.93342 l 10.302035,-7.54175 9.9647,7.29469 a 33.554267,34.248605 60 0 0 6.81267,-2.9901 33.554267,34.248605 60 0 0 5.99305,-4.42602 l -1.33258,-12.25571 11.66727,-5.14437 a 33.554267,34.248605 60 0 0 0.30164,-14.33287 l -11.96879,-5.27721 1.41199,-12.98542 a 33.554267,34.248605 60 0 0 -12.548,-6.93345 l -10.302027,7.54176 -9.964524,-7.29434 a 33.554267,34.248605 60 0 0 -6.812328,2.98989 z"
       style="opacity:0.98999999;fill:#9aca3c;fill-opacity:1;fill-rule:evenodd;stroke:#000000;stroke-width:0;stroke-miterlimit:0;stroke-dasharray:none;stroke-opacity:1" />
    <ellipse
       inkscape:export-ydpi="90"
       inkscape:export-xdpi="90"
       inkscape:export-filename="/tmp/path862.png"
       style="opacity:0.98999999;fill:#c0c0c0;fill-opacity:1;fill-rule:evenodd;stroke:#000000;stroke-width:0;stroke-miterlimit:0;stroke-dasharray:none;stroke-opacity:1"
       id="ellipse858"
       cx="95.360199"
       cy="-134.9026"
       rx="29.053453"
       ry="28.464436" />
    <ellipse
       inkscape:export-ydpi="90"
       inkscape:export-xdpi="90"
       inkscape:export-filename="/tmp/path862.png"
       ry="19.617996"
       rx="20.023951"
       cy="-134.9026"
       cx="95.360199"
       id="ellipse860"
       style="opacity:0.98999999;fill:#333333;fill-opacity:1;fill-rule:evenodd;stroke:#000000;stroke-width:0;stroke-miterlimit:0;stroke-dasharray:none;stroke-opacity:1" />
    <path
       inkscape:export-filename="/tmp/path862.png"
       style="display:inline;opacity:1;fill:#9aca3c;fill-opacity:1;fill-rule:evenodd;stroke:#000000;stroke-width:0;stroke-linecap:butt;stroke-linejoin:miter;stroke-miterlimit:4;stroke-dasharray:none;stroke-opacity:1"
       d="m 91.917722,-146.41033 4.13443,11.25492 4.762838,-11.08249 h 6.58671 l -10.690498,26.6228 h -7.27643 l 3.13818,-7.3799 -7.83683,-19.41533 c 2.39386,-1e-5 4.78774,0 7.1816,0 z"
       id="path862"
       inkscape:connector-curvature="0"
       sodipodi:nodetypes="ccccccccc"
       inkscape:export-xdpi="90"
       inkscape:export-ydpi="90" />
  </g>
</svg>
