<?xml version="1.0" encoding="iso-8859-1"?>
<!-- Generator: Adobe Illustrator 16.0.0, SVG Export Plug-In . SVG Version: 6.00 Build 0)  -->
<!DOCTYPE svg PUBLIC "-//W3C//DTD SVG 1.1//EN" "http://www.w3.org/Graphics/SVG/1.1/DTD/svg11.dtd">
<svg version="1.1" id="Capa_1" xmlns="http://www.w3.org/2000/svg" xmlns:xlink="http://www.w3.org/1999/xlink" x="0px" y="0px"
	 width="96px" height="96.001px" viewBox="0 0 96 96.001" style="enable-background:new 0 0 96 96.001;" xml:space="preserve">
<path d="M48,0C21.531,0,0,21.537,0,48.001c0,26.469,21.531,48,48,48s48-21.531,48-48C96,21.537,74.469,0,48,0z M88.938,48.001
	c0,9.363-3.177,18-8.479,24.906c-1.5-1.178-3.094-4.34-1.594-7.621c1.511-3.301,1.906-10.938,1.562-13.91
	c-0.333-2.969-1.875-10.131-6.072-10.199c-4.188-0.062-7.062-1.447-9.553-6.416c-5.166-10.339,9.698-12.323,4.531-18.052
	c-1.447-1.605-8.916,6.619-10.01-4.344C59.25,11.588,60,10.416,61,9.197C77.219,14.646,88.938,29.975,88.938,48.001z M42.375,7.469
	c-0.979,1.906-3.562,2.682-5.136,4.115c-3.416,3.094-4.885,2.666-6.729,5.635c-1.854,2.969-7.834,7.25-7.834,9.396
	c0,2.145,3.021,4.682,4.531,4.188c1.511-0.496,5.49-0.469,7.834,0.354c2.344,0.828,19.572,1.656,14.083,16.22
	c-1.739,4.629-9.364,3.848-11.396,11.52c-0.303,1.121-1.354,5.928-1.428,7.5c-0.125,2.428,1.719,11.59-0.625,11.59
	c-2.354,0-8.688-8.193-8.688-9.678s-1.646-6.693-1.646-11.15c0-4.459-7.583-4.387-7.583-10.312c0-5.35,4.114-8.006,3.188-10.568
	c-0.906-2.548-8.136-2.642-11.146-2.948C15.062,19.672,27.448,9.531,42.375,7.469z M35.125,86.849
	c2.458-1.297,2.708-2.973,4.938-3.066c2.552-0.115,4.625-0.996,7.5-1.625c2.552-0.559,7.114-3.146,11.136-3.48
	c3.385-0.275,10.072,0.178,11.875,3.449c-6.479,4.301-14.24,6.812-22.573,6.812C43.5,88.938,39.177,88.198,35.125,86.849z"/>
<g>
</g>
<g>
</g>
<g>
</g>
<g>
</g>
<g>
</g>
<g>
</g>
<g>
</g>
<g>
</g>
<g>
</g>
<g>
</g>
<g>
</g>
<g>
</g>
<g>
</g>
<g>
</g>
<g>
</g>
</svg>
