<?xml version="1.0" encoding="UTF-8"?>
<svg xmlns="http://www.w3.org/2000/svg" viewBox="0 0 220.8 70">
   <g fill="#9aca3c" transform="matrix(1 0 0 1 0 51.8115)" aria-label="yubico">
      <path d="m 19.833984,-11.630859 7.5,-21.269532 H 38.173828 L 19.892578,12.070313 H 8.4667969 L 13.681641,-0.234375 0.87890625,-32.900391 H 11.953125 Z" />
      <path d="M 76.787109,0 H 66.240234 v -3.6328125 q -2.929687,2.2265625 -5.361328,3.3984375 -2.43164,1.14257813 -5.800781,1.14257813 -5.449219,0 -8.408203,-3.13476563 -2.929688,-3.1347656 -2.929688,-9.2578125 v -21.416016 h 10.605469 v 16.31836 q 0,2.490234 0.146484,4.160156 0.175782,1.640625 0.761719,2.7246094 0.556641,1.0839843 1.669922,1.5820312 1.142578,0.4980469 3.164063,0.4980469 1.347656,0 2.988281,-0.4980469 1.640625,-0.4980469 3.164062,-1.4648437 V -32.900391 h 10.546875 z" />
      <path d="m 121.11328,-16.904297 q 0,7.763672 -4.30664,12.6562501 -4.27734,4.89257815 -10.69336,4.89257815 -2.7539,0 -4.83398,-0.5859375 -2.080081,-0.5859375 -3.955081,-1.69921875 L 96.884766,0 H 86.777344 v -45.585937 h 10.546875 v 16.113281 q 2.43164,-1.933594 4.951171,-3.134766 2.54883,-1.201172 5.85938,-1.201172 6.24023,0 9.60937,4.511719 3.36914,4.482422 3.36914,12.392578 z m -10.86914,0.205078 q 0,-4.394531 -1.49414,-6.767578 -1.49414,-2.373047 -5.33203,-2.373047 -1.49414,0 -3.07617,0.46875 -1.582034,0.439453 -3.017581,1.289063 v 16.5234373 q 1.142578,0.4101562 2.167968,0.5566406 1.025393,0.1464844 2.460943,0.1464844 4.18945,0 6.24023,-2.4609376 2.05078,-2.4609377 2.05078,-7.3828127 z" />
      <path d="m 139.27734,0 h -10.54687 v -32.900391 h 10.54687 z m 0.29297,-37.587891 H 128.4375 v -7.998046 h 11.13281 z" />
      <path id="path3729" d="m 166.37695,0.87890625 q -4.30664,0 -7.88086,-1.02539062 -3.54492,-1.02539063 -6.18164,-3.16406253 -2.60742,-2.1386718 -4.04297,-5.390625 -1.43554,-3.2519531 -1.43554,-7.6171871 0,-4.59961 1.52343,-7.939453 1.55274,-3.339844 4.30665,-5.53711 2.66601,-2.080078 6.15234,-3.046875 3.48633,-0.966797 7.23633,-0.966797 3.36914,0 6.21093,0.732422 2.8418,0.732422 5.30274,1.904297 v 8.994141 h -1.49414 q -0.61524,-0.527344 -1.49414,-1.230469 -0.84961,-0.703125 -2.10938,-1.376953 -1.20117,-0.644531 -2.63672,-1.054688 -1.43554,-0.439453 -3.33984,-0.439453 -4.21875,0 -6.50391,2.695313 -2.25586,2.666015 -2.25586,7.265625 0,4.746093 2.31446,7.2070309 2.34375,2.4609375 6.62109,2.4609375 1.99219,0 3.57422,-0.4394531 1.61133,-0.46875 2.66602,-1.0839844 0.99609,-0.5859375 1.75781,-1.2304688 0.76172,-0.6445311 1.40625,-1.2597661 h 1.49414 v 8.9941411 q -2.49024,1.17187502 -5.21484,1.84570315 -2.69532,0.703125 -5.97657,0.703125 z" />
      <path d="m 218.14453,-16.435547 q 0,8.1152345 -4.74609,12.8027345 -4.7168,4.6582031 -13.27149,4.6582031 -8.55468,0 -13.30078,-4.6582031 -4.7168,-4.6875 -4.7168,-12.8027345 0,-8.173828 4.7461,-12.832031 4.77539,-4.658203 13.27148,-4.658203 8.61328,0 13.30078,4.6875 4.7168,4.6875 4.7168,12.802734 z M 205.16602,-8.4375 q 1.02539,-1.2597656 1.52343,-3.017578 0.52735,-1.78711 0.52735,-4.921875 0,-2.900391 -0.52735,-4.863281 -0.52734,-1.962891 -1.46484,-3.134766 -0.9375,-1.201172 -2.25586,-1.699219 -1.31836,-0.498047 -2.8418,-0.498047 -1.52343,0 -2.72461,0.410157 -1.17187,0.410156 -2.25586,1.640625 -0.96679,1.142578 -1.55273,3.134765 -0.55664,1.992188 -0.55664,5.009766 0,2.695312 0.49805,4.6875 0.49804,1.9628905 1.46484,3.1640624 0.9375,1.1425781 2.22656,1.6699219 1.31836,0.5273437 2.98828,0.5273437 1.43555,0 2.72461,-0.46875 1.31836,-0.4980469 2.22657,-1.640625 z" />
   </g>
</svg>